<?xml version="1.0" encoding="UTF-8"?>
<svg version="1.1" xmlns="http://www.w3.org/2000/svg" width="2973" height="458">
<path d="M0 0 C46.40625 -0.061875 92.8125 -0.12375 140.625 -0.1875 C155.25150879 -0.21481201 169.87801758 -0.24212402 184.94775391 -0.27026367 C202.87573242 -0.28381348 202.87573242 -0.28381348 211.28158569 -0.28633118 C217.12398957 -0.28911424 222.96630611 -0.30005654 228.8086853 -0.31672668 C235.56471502 -0.33597488 242.3206618 -0.34447274 249.07671907 -0.34033485 C252.52449775 -0.33854623 255.97194502 -0.3428869 259.41971326 -0.35764539 C303.45946683 -0.53725879 346.09785951 8.95520781 378.375 40.75 C385.71984207 48.20645639 391.87202519 55.88093534 397 65 C397.35739258 65.62551758 397.71478516 66.25103516 398.08300781 66.89550781 C415.45927882 97.83374643 419.54403469 136.14724618 410.0925293 170.24707031 C405.0996368 187.2175457 397.71586895 202.62840001 386 216 C385.16597656 216.96679688 384.33195312 217.93359375 383.47265625 218.9296875 C369.39476121 234.95651434 352.4997711 245.71535149 333 254 C332.34 254 331.68 254 331 254 C331.76162188 255.4386191 332.52324387 256.87723814 333.28486633 258.31585693 C333.97870568 259.62644351 334.67254309 260.93703112 335.36637878 262.24761963 C337.35545478 266.00478429 339.34456765 269.76192944 341.33374023 273.51904297 C345.42503245 281.24669157 349.51590812 288.97455986 353.60546875 296.703125 C361.24260607 311.13509587 368.88855349 325.56229892 376.55252075 339.9800415 C382.04568042 350.31439533 387.52625756 360.65534954 393 371 C399.03269837 382.40060549 405.07337676 393.79692786 411.125 405.1875 C411.46708496 405.83146729 411.80916992 406.47543457 412.16162109 407.13891602 C412.82732888 408.39200353 413.49315945 409.64502582 414.15911865 410.89797974 C414.80140861 412.10676759 415.44322417 413.31580766 416.08453369 414.52511597 C417.79811679 417.75340276 419.52527125 420.97367706 421.26855469 424.18603516 C421.64027802 424.87409744 422.01200134 425.56215973 422.39498901 426.27107239 C423.1120404 427.59754664 423.83238422 428.92224778 424.556427 430.24491882 C427 434.77554553 427 434.77554553 427 437 C374.86 437 322.72 437 269 437 C257.66816694 415.46951718 257.66816694 415.46951718 254.125 407.875 C248.96229805 396.95693408 243.67703035 386.10091007 238.375 375.25 C236.62612047 371.66935952 234.87748855 368.08859814 233.12890625 364.5078125 C232.69552444 363.62041382 232.26214264 362.73301514 231.81562805 361.81872559 C226.94767417 351.8488085 222.09825928 341.86990563 217.25708008 331.88696289 C216.57246153 330.4754071 215.88780982 329.0638674 215.203125 327.65234375 C214.86496262 326.95518753 214.52680023 326.25803131 214.1783905 325.53974915 C211.94069037 320.92962471 209.69362423 316.32415646 207.44136047 311.72113037 C205.86043957 308.48953706 204.28222751 305.25662422 202.70419312 302.02362061 C201.95149193 300.48345125 201.19747318 298.94392501 200.44204712 297.40509033 C199.39678298 295.27560192 198.35613409 293.14391448 197.31640625 291.01171875 C197.00890442 290.38834122 196.70140259 289.76496368 196.38458252 289.12269592 C194.58959577 285.42803277 193.31432629 281.94297887 192 278 C175.17 278 158.34 278 141 278 C141 330.47 141 382.94 141 437 C94.47 437 47.94 437 0 437 C0 292.79 0 148.58 0 0 Z M141 100 C141 126.4 141 152.8 141 180 C158.14938792 180.11645451 158.14938792 180.11645451 175.29882812 180.1953125 C182.29935928 180.2191705 189.29968001 180.24731363 196.30004883 180.30175781 C201.94756048 180.34540263 207.59484629 180.36917652 213.24251366 180.37950897 C215.39096821 180.38686695 217.53941122 180.40123497 219.68776894 180.42292023 C235.79780566 180.57898088 247.64647459 179.64023452 259.87109375 168.2578125 C267.26307743 160.59558425 270.51478282 150.91434481 271.25 140.4375 C271.00069453 128.58415788 267.15369658 119.51715321 259.08203125 110.96875 C245.77781045 98.4346338 228.00366345 99.71139245 210.921875 99.8046875 C208.8987848 99.80842445 206.87569277 99.8112682 204.8526001 99.81326294 C199.56564203 99.82084569 194.27879641 99.8404473 188.99188232 99.8626709 C182.62820255 99.88687241 176.26448486 99.89593585 169.90077209 99.90757751 C160.26710354 99.92687546 150.63368101 99.96523531 141 100 Z " fill="#FFFFFF" transform="translate(1566,12)"/>
<path d="M0 0 C46.53 0 93.06 0 141 0 C141.03867188 28.99617188 141.03867188 28.99617188 141.078125 58.578125 C141.10329649 70.83724899 141.12944541 83.09635924 141.16015625 95.35546875 C141.17624607 101.79866465 141.19208922 108.24186108 141.20751953 114.68505859 C141.20946347 115.492495 141.21140741 116.2999314 141.21341026 117.13183558 C141.24434491 130.12995619 141.26138137 143.12805919 141.27319422 156.12620965 C141.28564996 169.48762273 141.31325037 182.84894412 141.35461307 196.21029925 C141.37962261 204.4404158 141.39312652 212.67038006 141.39142957 220.90053514 C141.39139958 226.56109007 141.40621446 232.22149106 141.43216428 237.88198587 C141.44666556 241.13715518 141.45292186 244.39195074 141.44580269 247.64715385 C141.39545235 274.22959978 144.12371721 298.21151833 162.46484375 318.76171875 C177.41373482 333.44085539 196.60357679 338.31260823 217 338.5 C237.81340013 338.30877726 257.69944976 332.91528459 273 318 C288.03496451 302.04563118 293.31913944 280.69764256 293.2784729 259.26873779 C293.2871615 257.59339411 293.2871615 257.59339411 293.29602563 255.8842051 C293.31290524 252.17635407 293.31589173 248.46862841 293.31884766 244.76074219 C293.32815415 242.08904835 293.33823795 239.41736789 293.34928894 236.74568176 C293.37146943 231.01150789 293.38653783 225.27735159 293.39665604 219.54314423 C293.41129539 211.25264037 293.43684664 202.96219779 293.46498732 194.67173007 C293.51036025 181.21818139 293.54701414 167.76462383 293.578125 154.31103516 C293.60834958 141.24884484 293.64274014 128.18667628 293.68261719 115.12451172 C293.68633945 113.90272069 293.68633945 113.90272069 293.69013691 112.65624702 C293.70957877 106.28528792 293.7292608 99.91432957 293.74901867 93.54337144 C293.84565733 62.36227412 293.92136422 31.18115796 294 0 C340.53 0 387.06 0 435 0 C435.12099405 68.46470567 435.12099405 68.46470567 435.14648438 97.1953125 C435.15235671 103.769857 435.15841779 110.34440128 435.16479492 116.91894531 C435.16598179 118.1547166 435.16598179 118.1547166 435.16719264 119.41545296 C435.18018912 132.66169809 435.20381173 145.90790358 435.23145839 159.15412532 C435.25965705 172.77993792 435.27620657 186.40572998 435.28226548 200.03157055 C435.28635219 208.41829891 435.29918973 216.80491519 435.3237494 225.19160898 C435.33978584 230.96708348 435.34436061 236.74250128 435.34050413 242.51799636 C435.3386099 245.834673 435.34292552 249.15100197 435.35761642 252.46766853 C435.58006129 305.34323533 424.01439851 352.77980111 386.41455078 391.59667969 C345.98066539 431.70955046 283.68481818 443.6184888 229 445 C228.19594727 445.02191406 227.39189453 445.04382813 226.56347656 445.06640625 C162.8195516 446.54595577 95.76129822 435.10789276 48 390 C47.19046875 389.25492187 46.3809375 388.50984375 45.546875 387.7421875 C15.70371001 359.30671897 1.21273253 315.64446187 -0.09129727 275.16603911 C-0.12475136 272.15133172 -0.12862105 269.13812655 -0.12025452 266.12324524 C-0.12110894 264.97861901 -0.12196337 263.83399278 -0.12284368 262.65468091 C-0.1244813 258.8470008 -0.11900541 255.03936546 -0.11352539 251.23168945 C-0.11268499 248.49118523 -0.11335807 245.75068185 -0.1139679 243.01017761 C-0.11449043 237.12428137 -0.111372 231.23839627 -0.10573006 225.35250282 C-0.09757825 216.84265119 -0.09499607 208.3328049 -0.09374207 199.82294979 C-0.09155732 186.01388079 -0.0849129 172.20481773 -0.07543945 158.39575195 C-0.06625039 144.9872236 -0.05918835 131.57869688 -0.05493164 118.17016602 C-0.05466364 117.33424815 -0.05439565 116.49833028 -0.05411953 115.63708156 C-0.05203992 109.09895947 -0.05008306 102.56083735 -0.04816496 96.02271521 C-0.03874349 64.01513803 -0.01862229 32.00757571 0 0 Z " fill="#FFFFFF" transform="translate(1038,12)"/>
<path d="M0 0 C54.12 0 108.24 0 164 0 C168.49982929 10.12461591 168.49982929 10.12461591 170.20043945 14.80517578 C170.58729416 15.86497147 170.97414886 16.92476715 171.37272644 18.01667786 C171.78210953 19.14812729 172.19149261 20.27957672 172.61328125 21.4453125 C173.05533401 22.65889938 173.49738678 23.87248627 173.95283508 25.12284851 C174.90873706 27.74713567 175.86266646 30.37212786 176.81500244 32.99771118 C178.33959721 37.20100318 179.8684414 41.40274175 181.39794922 45.60424805 C182.99645323 49.99590645 184.59463906 54.38767941 186.19128418 58.78001404 C189.74974395 68.56898843 193.31786893 78.35438113 196.89453125 88.13671875 C197.37489294 89.45068691 197.8552498 90.76465684 198.33560181 92.07862854 C199.05204582 94.0383874 199.76849111 95.99814579 200.48495293 97.95789814 C209.16734359 121.70807242 217.80081379 145.47550208 226.39797974 169.25665283 C231.84497653 184.32143062 237.32299672 199.37357572 242.88012695 214.39807129 C248.59531201 229.85184332 254.21710558 245.33909258 259.83810425 260.82733154 C266.37823511 278.84307137 272.98365349 296.83385132 279.625 314.8125 C287.03925513 334.88580613 294.35550993 354.99179319 301.57421875 375.13623047 C305.16256416 385.14543231 308.77519441 395.14441345 312.453125 405.12109375 C312.80851349 406.08624908 313.16390198 407.05140442 313.53005981 408.04580688 C315.20815327 412.60129807 316.89145169 417.15475053 318.58349609 421.70507812 C319.17302455 423.30201948 319.76239002 424.89902102 320.3515625 426.49609375 C320.6224469 427.2184874 320.8933313 427.94088104 321.17242432 428.68516541 C322.24459471 431.60350336 323 433.86338946 323 437 C273.83 437 224.66 437 174 437 C163.1745283 402.11792453 163.1745283 402.11792453 159.9375 391.375 C159.64709839 390.42246338 159.64709839 390.42246338 159.35083008 389.45068359 C158.78067582 387.58031386 158.21639689 385.70815621 157.65234375 383.8359375 C157.33257568 382.77938965 157.01280762 381.7228418 156.68334961 380.63427734 C156 378 156 378 156 375 C105.84 375.33 55.68 375.66 4 376 C-1.94 395.8 -7.88 415.6 -14 436 C-15 437 -15 437 -17.3719492 437.12304783 C-18.96342478 437.12166514 -18.96342478 437.12166514 -20.58705139 437.12025452 C-21.80006424 437.12162918 -23.01307709 437.12300385 -24.2628479 437.12442017 C-25.61932397 437.12088056 -26.9757998 437.11724575 -28.33227539 437.11352539 C-29.75112404 437.11324352 -31.16997284 437.11340124 -32.58882141 437.1139679 C-36.45228801 437.11425589 -40.31572383 437.1083589 -44.17918324 437.10139394 C-48.21242573 437.09516067 -52.24566885 437.09455662 -56.27891541 437.09336853 C-63.92165468 437.09025514 -71.56437973 437.08204164 -79.20711273 437.07201904 C-87.90588019 437.06085816 -96.60464831 437.05534752 -105.30342114 437.05032361 C-123.20228884 437.03985903 -141.10114328 437.02225943 -159 437 C-157.45024319 431.74860859 -155.90249387 426.51418984 -154.03320312 421.36572266 C-153.67356476 420.3710498 -153.31392639 419.37637695 -152.94338989 418.3515625 C-152.55988373 417.2996875 -152.17637756 416.2478125 -151.78125 415.1640625 C-151.37123749 414.03274902 -150.96122498 412.90143555 -150.53878784 411.73583984 C-149.42694301 408.67001788 -148.31260941 405.60511573 -147.19701385 402.54065704 C-146.25541602 399.95279094 -145.31587745 397.36417922 -144.37634087 394.77556419 C-136.12286482 372.0360866 -127.8246128 349.31289083 -119.51092529 326.59536743 C-115.56651787 315.81703044 -111.62781132 305.0366133 -107.68951416 294.25604248 C-105.7099035 288.83727857 -103.72993386 283.41864583 -101.75 278 C-100.95833161 275.83333396 -100.16666494 273.6666673 -99.375 271.5 C-37.625 102.49999999 -37.625 102.49999999 -36.4377594 99.25071716 C-35.64522186 97.08166222 -34.85269054 94.91260501 -34.06016541 92.74354553 C-32.09437388 87.3634009 -30.1284781 81.98329441 -28.16235352 76.60327148 C-24.4401558 66.41765127 -20.71909639 56.23161875 -17.00143433 46.04434204 C-15.2386468 41.21407215 -13.47530273 36.38400553 -11.71191406 31.55395508 C-10.86869865 29.24383562 -10.02575818 26.93361579 -9.18310547 24.62329102 C-8.01729006 21.42699431 -6.85054157 18.23103965 -5.68359375 15.03515625 C-5.33868393 14.08874771 -4.99377411 13.14233917 -4.63841248 12.16725159 C-4.31873001 11.29229538 -3.99904755 10.41733917 -3.66967773 9.51586914 C-3.39389389 8.76004044 -3.11811005 8.00421173 -2.83396912 7.22547913 C-1.92612784 4.80286925 -0.96083401 2.40208501 0 0 Z M79 122 C72.66918841 142.17108262 66.57279934 162.40340553 60.60146713 182.68340302 C59.46791073 186.53170504 58.33217136 190.37936267 57.1965332 194.22705078 C56.73423309 195.79345568 56.27193756 197.35986193 55.80964661 198.92626953 C55.58052896 199.70259735 55.35141132 200.47892517 55.11535072 201.27877808 C54.42386881 203.6221494 53.73267369 205.96560513 53.04154968 208.30908203 C50.06357539 218.40559912 47.07510018 228.49895143 44.078125 238.58984375 C43.69636286 239.87566254 43.3146132 241.16148503 42.93287659 242.4473114 C41.50215474 247.26598069 40.07134991 252.08462354 38.63815308 256.90255737 C37.67817367 260.13000519 36.71978211 263.3579205 35.76171875 266.5859375 C35.47842712 267.53649521 35.1951355 268.48705292 34.90325928 269.46641541 C34.52321747 270.74833519 34.52321747 270.74833519 34.13549805 272.05615234 C33.91460007 272.79908539 33.69370209 273.54201843 33.46611023 274.3074646 C32.95574874 275.86809412 32.95574874 275.86809412 33 277 C63.69 277 94.38 277 126 277 C124.77051208 271.46730437 123.54324071 266.1671652 121.96313477 260.7578125 C121.76866194 260.08912045 121.57418911 259.42042841 121.37382317 258.73147297 C120.73240312 256.52851212 120.08692381 254.32676332 119.44140625 252.125 C118.9798189 250.54273083 118.51848597 248.96038741 118.05738831 247.37797546 C116.81904119 243.13086514 115.57715787 238.88479663 114.3345108 234.63894272 C113.04192638 230.2205379 111.75232639 225.80126216 110.46240234 221.38208008 C108.61467432 215.05306843 106.76572638 208.72441522 104.91534042 202.39618015 C101.92705777 192.17638901 98.94556271 181.95463874 95.96822166 171.73165512 C94.64687126 167.19551181 93.32430654 162.65972247 92.0015955 158.12397575 C90.96158812 154.55755879 89.92208576 150.99099656 88.88381958 147.42407227 C87.73982643 143.49431739 86.59273508 139.56547365 85.4453125 135.63671875 C85.10786514 134.47597336 84.77041779 133.31522797 84.42274475 132.11930847 C84.11582199 131.07019791 83.80889923 130.02108734 83.49267578 128.94018555 C83.22673615 128.02818893 82.96079651 127.11619232 82.6867981 126.17655945 C82.05797064 123.98482761 82.05797064 123.98482761 81 122 C80.34 122 79.68 122 79 122 Z " fill="#FFFFFF" transform="translate(2621,12)"/>
<path d="M0 0 C54.12 0 108.24 0 164 0 C167.32557435 7.98137845 170.50256432 15.90525899 173.4140625 24.03125 C174.02470047 25.72363548 174.02470047 25.72363548 174.64767456 27.45021057 C175.74702118 30.49800228 176.8438963 33.54667014 177.93991089 36.59566116 C179.10519283 39.83478966 180.27424985 43.07255416 181.44335938 46.31030273 C181.67950077 46.96427882 181.91564217 47.61825491 182.15893936 48.29204845 C182.63850256 49.62008692 183.11808764 50.94811748 183.5976944 52.27614021 C184.32259053 54.28365247 185.04715512 56.29128415 185.77166748 58.29893494 C190.31901696 70.89729661 194.90134682 83.48277458 199.5 96.0625 C199.88350616 97.11201843 200.26701233 98.16153687 200.66213989 99.24285889 C205.1625854 111.55591978 209.68244221 123.86170338 214.22265625 136.16015625 C214.66157196 137.34914017 215.10048767 138.53812408 215.55270386 139.76313782 C215.99292877 140.9556163 216.43315369 142.14809479 216.88671875 143.37670898 C217.7786568 145.79280194 218.67058387 148.20889895 219.5625 150.625 C220.00400391 151.82085724 220.44550781 153.01671448 220.90039062 154.24880981 C227.38489044 171.81994701 233.77526318 189.42259823 240.09451294 207.05377197 C246.1360816 223.90415415 252.29425025 240.7094398 258.5 257.5 C265.11902679 275.41022805 271.67668209 293.34007838 278.125 311.3125 C284.22431176 328.308828 290.36454652 345.28937021 296.5625 362.25 C296.953237 363.31988159 297.343974 364.38976318 297.74655151 365.49206543 C302.12323622 377.4720327 306.52803853 389.44104542 310.9765625 401.39453125 C311.57605965 403.00758652 311.57605965 403.00758652 312.18766785 404.65322876 C314.09303307 409.77992657 316.00285716 414.90485514 317.92211914 420.02636719 C318.59802218 421.84172124 319.27373334 423.65714676 319.94921875 425.47265625 C320.26069855 426.29812454 320.57217834 427.12359283 320.89309692 427.97407532 C323 433.65933142 323 433.65933142 323 437 C273.83 437 224.66 437 174 437 C167.26534666 416.79603999 161.11960303 396.39867678 155 376 C105.17 376 55.34 376 4 376 C-1.94 395.8 -7.88 415.6 -14 436 C-15 437 -15 437 -17.3719492 437.12304783 C-18.96342478 437.12166514 -18.96342478 437.12166514 -20.58705139 437.12025452 C-21.80006424 437.12162918 -23.01307709 437.12300385 -24.2628479 437.12442017 C-25.61932397 437.12088056 -26.9757998 437.11724575 -28.33227539 437.11352539 C-29.75112404 437.11324352 -31.16997284 437.11340124 -32.58882141 437.1139679 C-36.45228801 437.11425589 -40.31572383 437.1083589 -44.17918324 437.10139394 C-48.21242573 437.09516067 -52.24566885 437.09455662 -56.27891541 437.09336853 C-63.92165468 437.09025514 -71.56437973 437.08204164 -79.20711273 437.07201904 C-87.90588019 437.06085816 -96.60464831 437.05534752 -105.30342114 437.05032361 C-123.20228884 437.03985903 -141.10114328 437.02225943 -159 437 C-158.37290647 433.75803939 -157.64129217 430.72726846 -156.51977539 427.62011719 C-156.06535065 426.3533036 -156.06535065 426.3533036 -155.60174561 425.06089783 C-155.27039612 424.14877029 -154.93904663 423.23664276 -154.59765625 422.296875 C-154.24898499 421.32871353 -153.90031372 420.36055206 -153.54107666 419.36305237 C-152.38525157 416.15735204 -151.22403313 412.95363613 -150.0625 409.75 C-149.24293891 407.48206692 -148.42352396 405.21408103 -147.60424805 402.94604492 C-141.49061903 386.03956844 -135.30658066 369.15916605 -129.09472656 352.28857422 C-122.97249451 335.6609574 -116.88608251 319.02042964 -110.8125 302.375 C-110.32618643 301.04231611 -109.83986847 299.70963382 -109.35354614 298.37695312 C-107.14086486 292.31338358 -104.92844955 286.24971704 -102.71629047 280.18595695 C-97.80499305 266.72364035 -92.89060181 253.26245334 -87.97608566 239.80131149 C-87.25016461 237.81295087 -86.52426405 235.82458277 -85.79837036 233.83621216 C-76.97359907 209.66341368 -68.14326444 185.49264991 -59.31054688 161.32275391 C-56.16789414 152.72309824 -53.02571535 144.1232694 -49.88354492 135.5234375 C-48.2978557 131.18356249 -46.71207589 126.84372061 -45.1262207 122.50390625 C-41.15442752 111.63460136 -37.18367682 100.76491738 -33.21484375 89.89453125 C-25.51844136 68.81606409 -17.81483375 47.74024016 -10.0852356 26.67391968 C-9.28315125 24.48755873 -8.48144984 22.30105726 -7.68014526 20.1144104 C-6.57698599 17.10449224 -5.47231361 14.09513397 -4.3671875 11.0859375 C-3.87489906 9.74155357 -3.87489906 9.74155357 -3.37266541 8.37001038 C-2.92305199 7.1473069 -2.92305199 7.1473069 -2.46435547 5.89990234 C-2.20411591 5.19070648 -1.94387634 4.48151062 -1.67575073 3.75082397 C-1 2 -1 2 0 0 Z M79 122 C75.36532784 132.65800366 72.03671447 143.3778782 68.859375 154.1796875 C68.37453322 155.82055285 67.88943939 157.46134374 67.40411377 159.10206604 C66.11545586 163.46067056 64.82978797 167.82015139 63.54473877 172.17982101 C61.402104 179.44608815 59.2537928 186.71068113 57.10646057 193.97556114 C56.56634209 195.80308526 56.0263337 197.63064193 55.48643494 199.45823097 C51.89199621 211.62556358 48.2797116 223.78735271 44.640625 235.94140625 C44.23410237 237.29984294 43.82758774 238.65828203 43.42108154 240.01672363 C41.91477798 245.0491625 40.40767873 250.08135662 38.89538574 255.11199951 C37.88636679 258.46853548 36.88042453 261.82597972 35.875 265.18359375 C35.57934143 266.16292374 35.28368286 267.14225372 34.97906494 268.15126038 C34.71527039 269.0339006 34.45147583 269.91654083 34.1796875 270.82592773 C33.83526611 271.97169533 33.83526611 271.97169533 33.48388672 273.14060974 C32.9160497 275.00236834 32.9160497 275.00236834 33 277 C63.69 277 94.38 277 126 277 C123.40907979 266.63631916 120.74230905 256.40992879 117.68359375 246.19140625 C117.26970958 244.79894303 116.85617144 243.40637691 116.44294739 242.01371765 C115.56583125 239.0596552 114.68676277 236.1061845 113.80603027 233.15319824 C111.70134992 226.09581863 109.60706236 219.03535216 107.51229477 211.97502518 C107.03163747 210.35513306 106.55085534 208.73527797 106.0699501 207.11545944 C100.1112146 187.04388808 94.24306915 166.9460141 88.382617 146.84557056 C87.79433949 144.828061 87.20587137 142.81060712 86.61735535 140.79316711 C85.9022511 138.34126369 85.18770978 135.88919598 84.47383118 133.43693542 C84.16052353 132.36236588 83.84721588 131.28779633 83.52441406 130.18066406 C83.11645599 128.7798056 83.11645599 128.7798056 82.70025635 127.35064697 C82.16596194 125.55710733 81.59179853 123.77539558 81 122 C80.34 122 79.68 122 79 122 Z " fill="#FFFFFF" transform="translate(205,12)"/>
<path d="M0 0 C42.3225 -0.061875 84.645 -0.12375 128.25 -0.1875 C141.58954102 -0.21481201 154.92908203 -0.24212402 168.67285156 -0.27026367 C185.02294922 -0.28381348 185.02294922 -0.28381348 192.68890381 -0.28633118 C198.01723284 -0.28911432 203.34546924 -0.30005698 208.67376709 -0.31672668 C215.49038593 -0.33802069 222.30687317 -0.34344697 229.12352324 -0.33921683 C231.61269851 -0.34010015 234.10187877 -0.34596305 236.59102678 -0.35764539 C274.53884113 -0.52733614 308.75010911 7.58616038 338 33 C338.85464844 33.72058594 339.70929688 34.44117188 340.58984375 35.18359375 C367.30406861 58.27555083 381.65187196 93.52321874 384.8190918 128.11303711 C385.21975922 134.50695385 385.24403018 140.90820047 385.25 147.3125 C385.25100708 148.06367096 385.25201416 148.81484192 385.25305176 149.58877563 C385.22060947 185.47137764 375.68066363 221.27991174 352 249 C351.18660156 249.96421875 350.37320312 250.9284375 349.53515625 251.921875 C343.90014405 258.36697584 337.80889512 263.82405211 331 269 C330.2575 269.58136719 329.515 270.16273438 328.75 270.76171875 C310.76111907 284.15968736 289.98929711 291.63750022 268 295 C267.01535263 295.17385727 266.03070526 295.34771454 265.01622009 295.52684021 C259.76273271 296.26791688 254.48428459 296.13085952 249.18969727 296.11352539 C247.99939124 296.11364593 246.80908522 296.11376646 245.58270931 296.11389065 C241.74392237 296.11314648 237.90518446 296.10554081 234.06640625 296.09765625 C231.69071476 296.0961853 229.31502294 296.09516553 226.93933105 296.09460449 C218.14704908 296.08936939 209.35477406 296.07540814 200.5625 296.0625 C171.0790625 296.0315625 171.0790625 296.0315625 141 296 C141 342.53 141 389.06 141 437 C94.47 437 47.94 437 0 437 C0 292.79 0 148.58 0 0 Z M141 104 C141 133.37 141 162.74 141 193 C152.1375 193.0825 163.275 193.165 174.75 193.25 C178.24303711 193.28641602 181.73607422 193.32283203 185.33496094 193.36035156 C188.51613599 193.37374421 188.51613599 193.37374421 191.69732666 193.3817749 C193.09435145 193.38784437 194.49135772 193.40175805 195.88824463 193.42230225 C210.01432242 193.61934024 221.3213098 191.39612819 231.6796875 181.375 C241.25807627 171.0818061 242.57706516 157.74564308 242.24609375 144.2578125 C241.70047831 132.14569271 238.14683215 121.5489139 229.1875 113.125 C217.54655474 103.77263377 203.38202228 103.69176332 189.046875 103.8046875 C187.82049316 103.80670166 186.59411133 103.80871582 185.33056641 103.81079102 C180.80367221 103.82115709 176.27683185 103.84907865 171.75 103.875 C161.6025 103.91625 151.455 103.9575 141 104 Z " fill="#FFFFFF" transform="translate(579,12)"/>
<path d="M0 0 C49.5 0 99 0 150 0 C151.78144931 4.7505315 153.46993205 9.31388745 154.92822266 14.13916016 C155.46086731 15.89485573 155.46086731 15.89485573 156.00427246 17.6860199 C156.39093508 18.97034758 156.77752918 20.2546959 157.1640625 21.5390625 C157.58382083 22.92686538 158.00379032 24.3146044 158.4239502 25.70228577 C159.58186701 29.52944041 160.73620816 33.35766531 161.88980865 37.18612289 C162.88723733 40.49492949 163.88657541 43.80315834 164.88580132 47.11142254 C189.42276913 128.35770673 213.70890957 209.67994578 238 291 C240.14574138 287.78138793 241.01124351 285.10554586 242.12866211 281.40722656 C242.33294799 280.73603381 242.53723387 280.06484106 242.74771023 279.37330914 C243.42901482 277.13049343 244.10316536 274.88559215 244.77734375 272.640625 C245.25971498 271.04744246 245.74252274 269.45439204 246.22573853 267.86146545 C247.52992506 263.5576867 248.82792449 259.25206417 250.12480545 254.94607925 C251.4890529 250.42024696 252.85899254 245.89613818 254.22827148 241.37182617 C257.24372097 231.40443757 260.25099499 221.43459313 263.25688171 211.46431732 C264.37785053 207.74697795 265.49988027 204.02995914 266.62207031 200.31298828 C269.89144844 189.48349539 273.15891356 178.65342868 276.42187881 167.82200146 C283.37336971 144.74672706 290.35050938 121.67922839 297.33691406 98.61450195 C298.05957798 96.22862921 298.78223531 93.84275447 299.50488281 91.45687675 C299.9857809 89.86917006 300.46669722 88.2814689 300.94763184 86.69377327 C304.10404817 76.27291385 307.25316301 65.84988135 310.39506531 55.42463684 C312.03229411 49.99222923 313.67186851 44.5605305 315.31206989 39.12901974 C316.62959489 34.76533159 317.94405282 30.40073527 319.25622177 26.03543377 C320.247366 22.74150285 321.24318549 19.44898925 322.23828125 16.15625 C322.59236053 14.97468826 322.94643982 13.79312653 323.31124878 12.57575989 C323.63819733 11.49695053 323.96514587 10.41814117 324.30200195 9.30664062 C324.58348587 8.37227173 324.86496979 7.43790283 325.15498352 6.47521973 C326 4 326 4 328 0 C375.52 0 423.04 0 472 0 C466.81986905 15.54039284 461.64833894 31.03883255 456.14331055 46.4597168 C454.31124355 51.59222766 452.48849027 56.72805109 450.6640625 61.86328125 C450.28352722 62.93361603 449.90299194 64.00395081 449.51092529 65.10671997 C445.14444788 77.39410159 440.82278275 89.69719492 436.5 102 C430.54415934 118.94582599 424.56738251 135.88399232 418.5625 152.8125 C412.33754982 170.36193583 406.15845333 187.92712383 400 205.5 C393.49969699 224.0483292 386.97154387 242.58634477 380.40087891 261.10986328 C374.74184364 277.06434813 369.11375893 293.02953049 363.5 309 C356.81854732 328.00667237 350.11257771 347.004442 343.37890625 365.99267578 C339.56630703 376.74533452 335.76336167 387.50131992 331.97265625 398.26171875 C331.55559921 399.44519394 331.13854218 400.62866913 330.70884705 401.8480072 C328.67861339 407.6093085 326.64964622 413.37105008 324.62280273 419.13354492 C323.89442684 421.20102967 323.16599559 423.26849492 322.4375 425.3359375 C322.10295303 426.28865036 321.76840607 427.24136322 321.42372131 428.22294617 C321.11760422 429.09087296 320.81148712 429.95879974 320.49609375 430.85302734 C320.22982178 431.60981781 319.9635498 432.36660828 319.68920898 433.14633179 C319 435 319 435 318 437 C263.88 437 209.76 437 154 437 C147.73 419.18 141.46 401.36 135 383 C129.37271576 367.22458715 129.37271576 367.22458715 123.734375 351.453125 C119.67305681 340.10255812 115.64720784 328.73947454 111.625 317.375 C111.26898712 316.3691687 110.91297424 315.3633374 110.5461731 314.32702637 C108.74216406 309.22986696 106.93857893 304.13255769 105.13525391 299.03515625 C101.69624032 289.31442993 98.25458466 279.59463921 94.8125 269.875 C94.46845123 268.90344971 94.12440247 267.93189941 93.76992798 266.9309082 C87.62405407 249.57659619 81.46962084 232.22532415 75.3125 214.875 C75.08241493 214.22663681 74.85232986 213.57827362 74.61527252 212.91026306 C71.0771154 202.9400806 67.53858519 192.97003055 64 183 C60.22897567 172.37506778 56.45806873 161.75009391 52.6875 151.125 C52.4566785 150.47457481 52.22585701 149.82414963 51.98804092 149.15401459 C45.81940324 131.77145117 39.65586402 114.3870918 33.5 97 C27.46161847 79.94621828 21.42078902 62.89330392 15.37405014 45.84248352 C14.13385092 42.3453128 12.89388089 38.84806129 11.65454102 35.35058594 C10.27311373 31.45218444 8.89051358 27.55419989 7.5078125 23.65625 C7.09608795 22.49387817 6.6843634 21.33150635 6.26016235 20.13391113 C5.87411835 19.04622437 5.48807434 17.9585376 5.09033203 16.83789062 C4.73231506 15.82895752 4.3742981 14.82002441 4.00543213 13.78051758 C3.11008468 11.30443863 2.17308157 8.85004321 1.21826172 6.39648438 C0 3 0 3 0 0 Z " fill="#FFFFFF" transform="translate(2011,12)"/>
</svg>
